<svg xmlns="http://www.w3.org/2000/svg" xmlns:xlink="http://www.w3.org/1999/xlink" viewBox="0 0 156.98 126.66"><defs><style>.cls-1{fill:url(#New_Gradient_Swatch_1);}.cls-2{fill:url(#New_Gradient_Swatch_1-2);}</style><linearGradient id="New_Gradient_Swatch_1" x1="237.17" y1="129.67" x2="101.18" y2="254.66" gradientTransform="matrix(1.36, 0.36, 0.36, 1.36, -255.14, -255.14)" gradientUnits="userSpaceOnUse"><stop offset="0" stop-color="#0613fb"/><stop offset="1" stop-color="#4581e4"/></linearGradient><linearGradient id="New_Gradient_Swatch_1-2" x1="114" y1="-23.84" x2="-22" y2="101.17" gradientTransform="matrix(0.91, -0.09, -0.09, 0.91, 52.83, 52.83)" xlink:href="#New_Gradient_Swatch_1"/></defs><title>Asset 5</title><g id="Layer_2" data-name="Layer 2"><g id="BACKGROUND_2" data-name="BACKGROUND 2"><g id="ELEMENT"><g id="ELEMENT-2" data-name="ELEMENT"><g id="ELEMENT-3" data-name="ELEMENT"><path class="cls-1" d="M103.46,36.62,36.62,103.46c-9.7,9.7-23.88,11.25-31.66,3.47H5c-7.79-7.79-6.24-22,3.46-31.66L75.27,8.42C85-1.28,99.14-2.83,106.93,5h0C114.71,12.74,113.16,26.92,103.46,36.62Z"/><path class="cls-2" d="M154.18,35.39,65.72,123.86a9.54,9.54,0,0,1-13.5,0h0a9.54,9.54,0,0,1,0-13.5l88.46-88.47a9.56,9.56,0,0,1,13.5,0h0A9.54,9.54,0,0,1,154.18,35.39Z"/></g></g></g></g></g></svg>