<svg xmlns="http://www.w3.org/2000/svg" xmlns:xlink="http://www.w3.org/1999/xlink" viewBox="0 0 482.27 224.7"><defs><style>.cls-1{fill:#616161;opacity:0.09;}.cls-2{fill:url(#New_Gradient_Swatch_1);}.cls-3{fill:url(#New_Gradient_Swatch_1-2);}</style><linearGradient id="New_Gradient_Swatch_1" x1="226.06" y1="130.76" x2="164.43" y2="-31.01" gradientUnits="userSpaceOnUse"><stop offset="0" stop-color="#0613fb"/><stop offset="1" stop-color="#4581e4"/></linearGradient><linearGradient id="New_Gradient_Swatch_1-2" x1="210.9" y1="63.82" x2="187.79" y2="-20.92" xlink:href="#New_Gradient_Swatch_1"/></defs><title>Asset 2</title><g id="Layer_2" data-name="Layer 2"><g id="BACKGROUND_2" data-name="BACKGROUND 2"><g id="ELEMENT"><g id="ELEMENT-2" data-name="ELEMENT"><g id="ELEMENT-3" data-name="ELEMENT"><path class="cls-1" d="M482.08.64s12,111.91-151.78,96c-132.47-12.87-81,126.2-188.7,128.06C70,225.93,75.33,113.65,0,215.3V.06Z"/><path class="cls-1" d="M436.92.53s0,100-118.57,77.8C193.14,54.88,240.29,192.7,136.48,194.21c-69,1-81.82-85.8-136.48-19.7V.06Z"/><path class="cls-2" d="M416.29,0s15.58,84.92-116.94,66.32C208.2,53.53,232,130.82,166.77,161.37,103.18,191.16,55,99.79,0,167.48V.62Z"/><path class="cls-3" d="M353.83.55s2.62,63.84-90,38c-69.46-19.38-87.14,62.62-142.17,62.62C81.32,101.18,32.13,77.31,46.73.55Z"/></g></g></g></g></g></svg>