<svg id="Layer_5" enable-background="new 0 0 64 64" height="512" viewBox="0 0 64 64" width="512" xmlns="http://www.w3.org/2000/svg" xmlns:xlink="http://www.w3.org/1999/xlink"><linearGradient id="SVGID_1_" gradientUnits="userSpaceOnUse" x1="32" x2="32" y1="63" y2="1"><stop offset="0" stop-color="#9f2fff"/><stop offset="1" stop-color="#0bb1d3"/></linearGradient><path d="m36 25c-6.065 0-11 4.935-11 11s4.935 11 11 11 11-4.935 11-11-4.935-11-11-11zm0 2c4.624 0 8.441 3.507 8.941 8h-9.561l-5.871-5.218c1.64-1.711 3.941-2.782 6.491-2.782zm-9 9c0-1.692.478-3.27 1.293-4.623l2.707 2.406v9.695c-2.41-1.617-4-4.365-4-7.478zm6 8.475v-8.915l1.62 1.44h2.38v7.941c-.329.037-.662.059-1 .059-1.053 0-2.06-.191-3-.525zm6 0v-7.475h5.941c-.386 3.47-2.753 6.343-5.941 7.475zm19-43.475h-52c-2.757 0-5 2.243-5 5v3h2v38h-2v3c0 2.757 2.243 5 5 5h42.761l5.628 6.343c.934 1.053 2.277 1.657 3.685 1.657 2.716 0 4.926-2.21 4.926-4.926 0-1.408-.604-2.751-1.657-3.685l-.403-.358c1.26-.92 2.06-2.396 2.06-4.031v-3h-2v-38h2v-3c0-2.757-2.243-5-5-5zm-52 52c-1.654 0-3-1.346-3-3v-1h25.549c2.198 1.265 4.738 2 7.451 2 2.709 0 5.246-.733 7.442-1.995l3.544 3.995zm30-4c-7.168 0-13-5.832-13-13 0-7.047 5.953-13 13-13 7.168 0 13 5.832 13 13s-5.832 13-13 13zm-3-27.683c-4.368.928-8.103 3.828-10.199 7.683h-13.801v-16h24zm-7.163 25.683h-8.837v-12h4.052c-.023.332-.052.663-.052 1 0 4.348 1.871 8.258 4.837 11zm-10.837 0h-4v-6.586l4-4zm43.074 14c-.836 0-1.634-.359-2.189-.984l-10.766-12.134c1.037-.798 1.965-1.726 2.763-2.763l12.134 10.766c.625.554.984 1.352.984 2.189 0 1.614-1.313 2.926-2.926 2.926zm2.926-11c0 1.136-.641 2.144-1.614 2.652l-4.116-3.652h5.73zm-2-3h-5.985l-4.01-3.558c1.262-2.196 1.995-4.733 1.995-7.442 0-8.271-6.729-15-15-15-.337 0-.668.029-1 .052v-10.052h-28v20h14.911c-.239.651-.448 1.314-.594 2h-5.731l-6.586 6.586v7.414h-4v-38h54zm2-40h-58v-1c0-1.654 1.346-3 3-3h52c1.654 0 3 1.346 3 3zm-4 6h-14v-2h14zm0 4h-14v-2h14zm-2 2h2v2h-2zm-4 0h2v2h-2zm-4 0h2v2h-2zm1.707 28.293 1.414 1.414-1.414 1.414-1.414-1.414zm5.657 5.657 1.343 1.343-1.414 1.414-1.343-1.343zm-1.414-1.414-1.414 1.414-1.414-1.414 1.414-1.414z" fill="url(#SVGID_1_)"/></svg>