<svg height="496pt" viewBox="0 -1 496 495" width="496pt" xmlns="http://www.w3.org/2000/svg" xmlns:xlink="http://www.w3.org/1999/xlink"><linearGradient id="a" gradientUnits="userSpaceOnUse" x1="248" x2="248" y1="493.444" y2=".4984"><stop offset="0" stop-color="#9f2fff"/><stop offset="1" stop-color="#0bb1d3"/></linearGradient><path d="m456 157.445312h-102.113281l48-24-265.886719-132.945312v156.945312h-96c-22.054688 0-40 17.941407-40 40v256c0 22.054688 17.945312 40 40 40h416c22.054688 0 40-17.945312 40-40v-256c0-22.058593-17.945312-40-40-40zm-304-131.058593 214.113281 107.058593-214.113281 107.054688zm-112 147.058593h96v92.941407l185.886719-92.941407h134.113281c13.230469 0 24 10.765626 24 24v168h-464v-168c0-13.234374 10.769531-24 24-24zm416 304h-416c-13.230469 0-24-10.769531-24-24v-72h464v72c0 13.230469-10.769531 24-24 24zm-328-80h16v64h-16zm32 0h16v64h-16zm272-128h-16v-16h48v16h-16v80h-16zm-128 48h-16v-16h16v-48h16v48h16v16h-16v32h-16zm64-16h-16v-16h16v-32h16v32h16v16h-16v48h-16zm-160 164.941407 73.886719-36.941407-73.886719-36.945312zm16-48 22.113281 11.058593-22.113281 11.054688zm80 43.058593h64v-64h-64zm16-48h32v32h-32zm-260-96h-28v-16h36l17.640625 23.511719 25.3125-67.503906 29.992187 59.992187h51.054688v16h-60.945312l-18-36.007812-22.6875 60.496094zm0 0" fill="url(#a)"/></svg>