<svg id="Layer_5" enable-background="new 0 0 64 64" height="512" viewBox="0 0 64 64" width="512" xmlns="http://www.w3.org/2000/svg" xmlns:xlink="http://www.w3.org/1999/xlink"><linearGradient id="SVGID_1_" gradientUnits="userSpaceOnUse" x1="32" x2="32" y1="63" y2="1"><stop offset="0" stop-color="#9f2fff"/><stop offset="1" stop-color="#0bb1d3"/></linearGradient><path d="m7 40v2h-2v-2zm-2 6h2v-2h-2zm0 4h2v-2h-2zm54-1v-8h-2v8zm-27-18c3.859 0 7 3.141 7 7s-3.141 7-7 7-7-3.141-7-7 3.141-7 7-7zm-5 7c0 2.757 2.243 5 5 5s5-2.243 5-5-2.243-5-5-5-5 2.243-5 5zm25-23c-.552 0-1-.448-1-1h-2c0 1.302.839 2.402 2 2.816v2.184h2v-2h2v-3c0-1.654-1.346-3-3-3-.552 0-1-.448-1-1v-1h1c.552 0 1 .448 1 1h2c0-1.302-.839-2.402-2-2.816v-2.184h-2v2h-2v3c0 1.654 1.346 3 3 3 .552 0 1 .448 1 1v1zm-17.572 3.957-1.208 6.043h2.562l.603 2.415 2.136-1.28.864.865h18.615c2.757 0 5 2.243 5 5v26c0 2.757-2.243 5-5 5h-52c-2.757 0-5-2.243-5-5v-26c0-2.757 2.243-5 5-5h18.615l.865-.865 2.136 1.28.603-2.415h2.961l1.287-6.435c-.875-.525-1.467-1.473-1.467-2.565 0-1.654 1.346-3 3-3 1.302 0 2.402.839 2.816 2h4.611c-.272-.955-.427-1.959-.427-3 0-6.065 4.935-11 11-11s11 4.935 11 11-4.935 11-11 11c-4.264 0-7.961-2.444-9.786-6h-5.399c-.367 1.031-1.275 1.796-2.387 1.957zm8.572-6.957c0 4.963 4.037 9 9 9s9-4.037 9-9-4.037-9-9-9-9 4.037-9 9zm-37 49h3v-32h-3c-1.654 0-3 1.346-3 3v26c0 1.654 1.346 3 3 3zm52-32h-3v32h3c1.654 0 3-1.346 3-3v-26c0-1.654-1.346-3-3-3zm-16.615 0 2 2h5.615c1.103 0 2 .897 2 2v24c0 1.103-.897 2-2 2h-34c-1.103 0-2-.897-2-2v-24c0-1.103.897-2 2-2h5.615l2-2h-11.615v32h42v-32zm-20.339 4h-6.046v24h34v-24h-6.046l-.369.616 2.415.603v7.562l-2.415.603 1.28 2.136-5.346 5.346-2.136-1.28-.602 2.414h-7.562l-.603-2.415-2.136 1.28-5.346-5.346 1.28-2.136-2.414-.602v-7.562l2.415-.603zm13.173-6h-4.438l-.612 2.452-1.219.496-2.159-1.296-3.139 3.139 1.296 2.159-.465 1.143-.534.202-1.949.486v4.438l2.452.612.496 1.219-1.296 2.159 3.139 3.139 2.159-1.296 1.143.465.202.534.486 1.949h4.438l.612-2.452 1.219-.496 2.159 1.296 3.139-3.139-1.296-2.159.503-1.22 2.445-.611v-4.438l-2.452-.612-.496-1.219 1.296-2.159-3.139-3.139-2.159 1.296-1.143-.465-.202-.534zm-1.219-11c0 .552.448 1 1 1s1-.448 1-1-.448-1-1-1-1 .448-1 1zm-32 0v-12c0-1.654 1.346-3 3-3h22c1.654 0 3 1.346 3 3v12c0 1.654-1.346 3-3 3h-3v2.957c0 1.678-1.365 3.043-3.043 3.043-.906 0-1.759-.399-2.338-1.096l-4.088-4.904h-9.531c-1.654 0-3-1.346-3-3zm2 0c0 .552.448 1 1 1h10.469l4.688 5.624c.197.239.489.376.8.376.575 0 1.043-.468 1.043-1.043v-4.957h5c.552 0 1-.448 1-1v-12c0-.552-.448-1-1-1h-22c-.552 0-1 .448-1 1zm8-5.586 5 5 7-7v2.586h2v-6h-6v2h2.586l-5.586 5.586-5-5-6.707 6.707 1.414 1.414zm8 42.586h-2v2h2zm4 0h-2v2h2zm4 0h-2v2h2z" fill="url(#SVGID_1_)"/></svg>