<svg id="Layer_5" enable-background="new 0 0 64 64" height="512" viewBox="0 0 64 64" width="512" xmlns="http://www.w3.org/2000/svg" xmlns:xlink="http://www.w3.org/1999/xlink"><linearGradient id="SVGID_1_" gradientUnits="userSpaceOnUse" x1="32" x2="32" y1="63" y2="1"><stop offset="0" stop-color="#9f2fff"/><stop offset="1" stop-color="#0bb1d3"/></linearGradient><path d="m36.784 5.224c.724-.149 1.47-.224 2.216-.224v2c-.612 0-1.222.062-1.814.183zm-8.784 10.776h2c0-3.64 2.169-6.9 5.527-8.306l-.772-1.844c-4.104 1.717-6.755 5.701-6.755 10.15zm35 10c0 5.514-4.486 10-10 10h-6.654c.4.819.751 1.66 1.005 2.536l4.649.581v7.766l-4.649.581c-.327 1.124-.775 2.207-1.341 3.233l2.877 3.699-5.491 5.491-3.699-2.877c-1.026.565-2.109 1.014-3.233 1.341l-.581 4.649h-7.766l-.581-4.649c-1.124-.327-2.207-.775-3.233-1.341l-3.699 2.877-5.491-5.491 2.877-3.699c-.565-1.026-1.014-2.109-1.341-3.233l-4.649-.581v-7.766l4.649-.581c.255-.876.605-1.717 1.005-2.536h-6.654c-5.514 0-10-4.486-10-10 0-5.233 4.042-9.532 9.167-9.958.945-5.702 5.961-10.042 11.833-10.042 1.716 0 3.406.39 4.958 1.095 2.735-3.689 7.107-6.095 12.042-6.095 8.271 0 15 6.729 15 15v.056c5.068.52 9 4.781 9 9.944zm-17.25 14.352-.163-.67c-.338-1.391-.888-2.716-1.634-3.941l-.359-.589 2.63-3.382-2.994-2.994-3.382 2.63-.589-.359c-1.225-.746-2.55-1.295-3.941-1.634l-.67-.163-.531-4.25h-4.234l-.531 4.25-.67.163c-1.391.338-2.716.888-3.941 1.634l-.589.359-3.382-2.63-2.994 2.994 2.63 3.382-.359.589c-.746 1.225-1.295 2.55-1.634 3.941l-.163.67-4.25.531v4.234l4.25.531.163.67c.338 1.391.888 2.716 1.634 3.941l.359.589-2.63 3.382 2.994 2.994 3.382-2.63.589.359c1.225.746 2.55 1.295 3.941 1.634l.67.163.531 4.25h4.234l.531-4.25.67-.163c1.391-.338 2.716-.888 3.941-1.634l.589-.359 3.382 2.63 2.994-2.994-2.63-3.382.359-.589c.746-1.225 1.295-2.55 1.634-3.941l.163-.67 4.25-.531v-4.234zm15.25-14.352c0-4.411-3.589-8-8-8h-1.075l.026-1.069c.028-.375.049-.651.049-.931 0-7.168-5.832-13-13-13s-13 5.832-13 13h-2c0-2.615.676-5.074 1.858-7.217-1.217-.508-2.529-.783-3.858-.783-4.793 0-8.903 3.47-9.809 8.078 2.197.26 4.237 1.228 5.834 2.806l-1.405 1.423c-1.506-1.488-3.502-2.307-5.62-2.307-4.411 0-8 3.589-8 8s3.589 8 8 8h5.976l-1.864-2.396 5.491-5.491 3.699 2.877c1.026-.565 2.109-1.014 3.233-1.341l.582-4.649h7.766l.581 4.649c1.124.327 2.207.775 3.233 1.341l3.699-2.877 5.491 5.491-1.863 2.396h5.976c4.411 0 8-3.589 8-8zm-21 17c0 4.411-3.589 8-8 8s-8-3.589-8-8 3.589-8 8-8 8 3.589 8 8zm-2 0c0-3.309-2.691-6-6-6s-6 2.691-6 6 2.691 6 6 6 6-2.691 6-6zm-14.856 8.099c.498.544 1.049 1.045 1.637 1.488l1.204-1.597c-.491-.37-.95-.788-1.366-1.242zm3.52 2.652c.66.328 1.355.597 2.066.798l.544-1.925c-.592-.167-1.17-.391-1.72-.664zm5.35-.751c-.314-.006-.621-.014-.925-.041l-.183 1.991c.366.034.712.049 1.11.05.371 0 .739-.018 1.103-.051l-.185-1.991c-.303.027-.609.042-.92.042zm2.732-.382.548 1.924c.709-.202 1.403-.472 2.064-.802l-.894-1.789c-.55.275-1.128.499-1.718.667zm.499-21.174c-.71-.199-1.442-.333-2.177-.397l-.176 1.992c.612.054 1.222.166 1.814.331zm6.579 9.678 1.965-.374c-.138-.726-.345-1.441-.614-2.127l-1.862.729c.224.572.396 1.168.511 1.772zm.008 3.716 1.967.365c.133-.722.201-1.463.201-2.172v-.077l-2 .046c0 .618-.057 1.236-.168 1.838zm-2.633-11.44c-.591-.444-1.226-.834-1.885-1.161l-.887 1.793c.55.271 1.078.597 1.571.967zm1.307 14.862 1.699 1.055c.389-.627.721-1.294.988-1.982l-1.865-.723c-.221.573-.498 1.128-.822 1.65zm1.674-11.616c-.39-.625-.842-1.217-1.341-1.76l-1.473 1.353c.417.454.793.948 1.119 1.468zm-11.135-3.599-.188-1.991c-.736.069-1.468.208-2.176.411l.553 1.922c.589-.169 1.198-.284 1.811-.342zm6.986 17.932 1.207 1.595c.588-.445 1.138-.947 1.634-1.492l-1.479-1.347c-.414.454-.872.873-1.362 1.244zm-15.367-11.568-1.866-.719c-.265.688-.467 1.405-.6 2.132l1.967.36c.11-.604.278-1.201.499-1.773zm-.664 3.612-2 .004c.001.74.071 1.481.207 2.203l1.966-.369c-.114-.602-.172-1.22-.173-1.838zm5.517-8.962-.896-1.788c-.658.33-1.29.725-1.878 1.172l1.211 1.592c.49-.373 1.016-.702 1.563-.976zm-2.924 2.223-1.481-1.344c-.496.546-.943 1.141-1.331 1.768l1.702 1.051c.323-.523.696-1.019 1.11-1.475zm-1.914 10.348-1.863.727c.267.685.601 1.351.991 1.979l1.698-1.057c-.326-.524-.604-1.078-.826-1.649zm-15.217-8.439c-.307 1.573-.462 3.191-.462 4.809 0 5.073 1.515 9.916 4.357 14.073.208-.045.422-.073.643-.073 1.654 0 3 1.346 3 3s-1.346 3-3 3-3-1.346-3-3c0-.706.255-1.348.665-1.861-3.043-4.477-4.665-9.685-4.665-15.139 0-1.746.168-3.493.499-5.191zm4.538 20.809c-.551 0-1 .449-1 1s.449 1 1 1 1-.449 1-1-.449-1-1-1zm45-16c0-.062-.003-.123-.003-.185-1.16-.415-1.997-1.514-1.997-2.815 0-1.654 1.346-3 3-3s3 1.346 3 3c0 1.303-.84 2.404-2.004 2.817.001.061.004.122.004.183 0 7.45-3.124 14.642-8.569 19.73l-1.365-1.461c5.042-4.711 7.934-11.371 7.934-18.269zm0-3c0 .551.449 1 1 1s1-.449 1-1-.449-1-1-1-1 .449-1 1z" fill="url(#SVGID_1_)"/></svg>